<?xml version="1.0" encoding="UTF-8"?>
<!DOCTYPE svg PUBLIC "-//W3C//DTD SVG 1.1//EN" "http://www.w3.org/Graphics/SVG/1.1/DTD/svg11.dtd">
<svg xmlns="http://www.w3.org/2000/svg" version="1.1" width="250px" height="252px" style="shape-rendering:geometricPrecision; text-rendering:geometricPrecision; image-rendering:optimizeQuality; fill-rule:evenodd; clip-rule:evenodd" xmlns:xlink="http://www.w3.org/1999/xlink">
<g><path style="opacity:0.973" fill="#fdfdfd" d="M 72.5,-0.5 C 107.5,-0.5 142.5,-0.5 177.5,-0.5C 214.807,3.4922 238.807,23.4922 249.5,59.5C 249.5,103.5 249.5,147.5 249.5,191.5C 239.365,226.973 216.032,246.973 179.5,251.5C 143.167,251.5 106.833,251.5 70.5,251.5C 30.9865,245.987 7.31983,223.654 -0.5,184.5C -0.5,145.167 -0.5,105.833 -0.5,66.5C 7.57871,26.4201 31.912,4.08677 72.5,-0.5 Z M 67.5,24.5 C 105.835,24.3333 144.168,24.5 182.5,25C 207.69,30.5229 222.19,46.0229 226,71.5C 226.667,107.5 226.667,143.5 226,179.5C 222.162,205.004 207.662,220.504 182.5,226C 144.167,226.667 105.833,226.667 67.5,226C 40.9507,220.116 26.4507,203.616 24,176.5C 23.0591,139.476 23.3924,102.476 25,65.5C 30.8713,43.1271 45.0379,29.4604 67.5,24.5 Z M 120.5,86.5 C 146.965,86.2997 161.965,99.2997 165.5,125.5C 160.936,154.271 144.269,166.771 115.5,163C 91.3652,153.228 82.8652,135.728 90,110.5C 96.5346,97.7899 106.701,89.7899 120.5,86.5 Z"/></g>
<g><path style="opacity:0.953" fill="#fdfdfd" d="M 187.5,44.5 C 201.003,43.8355 207.17,50.1688 206,63.5C 202.337,72.916 195.504,76.416 185.5,74C 176.228,68.2177 174.062,60.3844 179,50.5C 181.671,48.0976 184.505,46.0976 187.5,44.5 Z"/></g>
<g><path style="opacity:0.971" fill="#fdfdfd" d="M 117.5,63.5 C 159.822,62.8223 183.488,83.489 188.5,125.5C 186.009,159.153 168.342,179.653 135.5,187C 92.6375,188.64 68.6375,168.14 63.5,125.5C 66.2571,91.4175 84.2571,70.7509 117.5,63.5 Z M 120.5,86.5 C 106.701,89.7899 96.5346,97.7899 90,110.5C 82.8652,135.728 91.3652,153.228 115.5,163C 144.269,166.771 160.936,154.271 165.5,125.5C 161.965,99.2997 146.965,86.2997 120.5,86.5 Z"/></g>
</svg>
