<?xml version="1.0" encoding="UTF-8"?>
<!DOCTYPE svg PUBLIC "-//W3C//DTD SVG 1.1//EN" "http://www.w3.org/Graphics/SVG/1.1/DTD/svg11.dtd">
<svg xmlns="http://www.w3.org/2000/svg" version="1.1" width="216px" height="216px" style="shape-rendering:geometricPrecision; text-rendering:geometricPrecision; image-rendering:optimizeQuality; fill-rule:evenodd; clip-rule:evenodd" xmlns:xlink="http://www.w3.org/1999/xlink">
<g><path style="opacity:0.973" fill="#fdfdfd" d="M 19.5,-0.5 C 23.5,-0.5 27.5,-0.5 31.5,-0.5C 48.3502,5.22549 54.8502,16.8922 51,34.5C 44.3112,48.9274 33.1446,54.4274 17.5,51C 8.12468,47.4638 2.12468,40.9638 -0.5,31.5C -0.5,27.8333 -0.5,24.1667 -0.5,20.5C 2.73135,10.2678 9.39801,3.26776 19.5,-0.5 Z"/></g>
<g><path style="opacity:0.987" fill="#fdfdfd" d="M 215.5,113.5 C 215.5,147.5 215.5,181.5 215.5,215.5C 200.5,215.5 185.5,215.5 170.5,215.5C 170.961,185.125 170.461,154.792 169,124.5C 163.945,109.721 153.778,104.554 138.5,109C 129.961,112.195 124.794,118.362 123,127.5C 121.558,156.801 121.058,186.134 121.5,215.5C 106.5,215.5 91.5,215.5 76.5,215.5C 76.5,167.5 76.5,119.5 76.5,71.5C 90.8333,71.5 105.167,71.5 119.5,71.5C 119.334,77.5092 119.501,83.5092 120,89.5C 130.278,74.1101 144.778,66.7768 163.5,67.5C 194.353,67.6917 211.686,83.0251 215.5,113.5 Z"/></g>
<g><path style="opacity:0.994" fill="#fdfdfd" d="M 48.5,215.5 C 33.5,215.5 18.5,215.5 3.5,215.5C 3.5,167.167 3.5,118.833 3.5,70.5C 18.5,70.5 33.5,70.5 48.5,70.5C 48.5,118.833 48.5,167.167 48.5,215.5 Z"/></g>
<g><path style="opacity:0.125" fill="#f7f7f7" d="M 119.5,71.5 C 105.167,71.5 90.8333,71.5 76.5,71.5C 76.5,119.5 76.5,167.5 76.5,215.5C 76.1667,215.5 75.8333,215.5 75.5,215.5C 75.5,167.167 75.5,118.833 75.5,70.5C 90.3428,70.1707 105.01,70.504 119.5,71.5 Z"/></g>
</svg>
