<?xml version="1.0" encoding="UTF-8"?>
<!DOCTYPE svg PUBLIC "-//W3C//DTD SVG 1.1//EN" "http://www.w3.org/Graphics/SVG/1.1/DTD/svg11.dtd">
<svg xmlns="http://www.w3.org/2000/svg" version="1.1" width="46px" height="52px" style="shape-rendering:geometricPrecision; text-rendering:geometricPrecision; image-rendering:optimizeQuality; fill-rule:evenodd; clip-rule:evenodd" xmlns:xlink="http://www.w3.org/1999/xlink">
<g><path style="opacity:0.991" fill="#0e3757" d="M 16.5,-0.5 C 20.5,-0.5 24.5,-0.5 28.5,-0.5C 36.7172,5.53446 38.5505,13.2011 34,22.5C 32.4571,24.3783 30.6238,25.8783 28.5,27C 36.0214,30.6894 41.6881,36.1894 45.5,43.5C 45.5,46.1667 45.5,48.8333 45.5,51.5C 30.1667,51.5 14.8333,51.5 -0.5,51.5C -0.5,48.1667 -0.5,44.8333 -0.5,41.5C 3.36381,35.1404 8.69714,30.3071 15.5,27C 7.3357,21.4998 5.50236,14.3332 10,5.5C 11.4936,2.68648 13.6603,0.686482 16.5,-0.5 Z"/></g>
</svg>
