<?xml version="1.0" encoding="UTF-8"?>
<!DOCTYPE svg PUBLIC "-//W3C//DTD SVG 1.1//EN" "http://www.w3.org/Graphics/SVG/1.1/DTD/svg11.dtd">
<svg xmlns="http://www.w3.org/2000/svg" version="1.1" width="58px" height="58px" style="shape-rendering:geometricPrecision; text-rendering:geometricPrecision; image-rendering:optimizeQuality; fill-rule:evenodd; clip-rule:evenodd" xmlns:xlink="http://www.w3.org/1999/xlink">
<g><path style="opacity:0.959" fill="#0e3656" d="M 7.5,-0.5 C 8.5,-0.5 9.5,-0.5 10.5,-0.5C 11.2276,2.0795 11.7276,4.74617 12,7.5C 19.4129,6.51916 26.9129,6.18583 34.5,6.5C 35.7799,6.63653 36.1132,4.30319 35.5,-0.5C 36.8333,-0.5 38.1667,-0.5 39.5,-0.5C 40.3686,1.71702 40.702,4.05035 40.5,6.5C 43.8078,5.97383 45.9745,7.30716 47,10.5C 47.8072,16.4163 47.6406,22.2496 46.5,28C 51.6182,29.6266 55.2849,32.7933 57.5,37.5C 57.5,41.1667 57.5,44.8333 57.5,48.5C 55.5,52.5 52.5,55.5 48.5,57.5C 44.8333,57.5 41.1667,57.5 37.5,57.5C 33.1578,55.4857 30.1578,52.1524 28.5,47.5C 19.8525,46.6681 11.1858,46.1681 2.5,46C 1.30943,45.3021 0.309426,44.4687 -0.5,43.5C -0.5,32.1667 -0.5,20.8333 -0.5,9.5C 1.13174,6.92744 3.29841,6.26078 6,7.5C 6.27243,4.74617 6.77243,2.0795 7.5,-0.5 Z M 6.5,9.5 C 7.28913,9.78281 7.9558,10.2828 8.5,11C 7.18398,11.5281 6.51731,11.0281 6.5,9.5 Z M 3.5,19.5 C 16.3226,18.5045 29.3226,18.1712 42.5,18.5C 42.8174,21.5719 42.4841,24.5719 41.5,27.5C 40.8333,27.8333 40.1667,28.1667 39.5,28.5C 38.52,25.9135 38.1866,23.2469 38.5,20.5C 35.8333,20.5 33.1667,20.5 30.5,20.5C 30.5,23.5 30.5,26.5 30.5,29.5C 32.1992,29.3398 33.8659,29.5065 35.5,30C 31.096,32.799 28.4293,36.799 27.5,42C 19.8406,42.4997 12.1739,42.6664 4.5,42.5C 4.82536,34.6484 4.49203,26.9818 3.5,19.5 Z M 40.5,32.5 C 51.6704,33.515 55.1704,39.1817 51,49.5C 46.534,53.8835 41.7007,54.3835 36.5,51C 30.8835,43.3462 32.2168,37.1796 40.5,32.5 Z"/></g>
<g><path style="opacity:0.9" fill="#0e3255" d="M 7.5,20.5 C 10.5,20.5 13.5,20.5 16.5,20.5C 16.6641,23.1873 16.4974,25.854 16,28.5C 13.2809,29.4438 10.4475,29.7771 7.5,29.5C 7.5,26.5 7.5,23.5 7.5,20.5 Z"/></g>
<g><path style="opacity:0.899" fill="#0e3355" d="M 19.5,20.5 C 22.1667,20.5 24.8333,20.5 27.5,20.5C 27.5,23.5 27.5,26.5 27.5,29.5C 19.0838,31.4217 16.4171,28.4217 19.5,20.5 Z"/></g>
<g><path style="opacity:0.915" fill="#0d3657" d="M 7.5,31.5 C 10.5,31.5 13.5,31.5 16.5,31.5C 16.6641,34.1873 16.4974,36.854 16,39.5C 13.2809,40.4438 10.4475,40.7771 7.5,40.5C 7.5,37.5 7.5,34.5 7.5,31.5 Z"/></g>
<g><path style="opacity:0.915" fill="#0e3757" d="M 18.5,31.5 C 21.5,31.5 24.5,31.5 27.5,31.5C 27.5,34.5 27.5,37.5 27.5,40.5C 24.8127,40.6641 22.146,40.4974 19.5,40C 18.5562,37.2809 18.2229,34.4475 18.5,31.5 Z"/></g>
<g><path style="opacity:0.941" fill="#0d3655" d="M 39.5,35.5 C 40.8333,35.5 42.1667,35.5 43.5,35.5C 43.5,37.8333 43.5,40.1667 43.5,42.5C 46.1194,42.2317 48.6194,42.565 51,43.5C 51.6838,44.7839 51.5171,45.9505 50.5,47C 39.7922,49.7932 36.1255,45.9599 39.5,35.5 Z"/></g>
</svg>
